<mxfile host="65bd71144e">
    <diagram id="kLDeTscSKIG2q7LJa7Dl" name="Page-1">
        <mxGraphModel dx="642" dy="541" grid="1" gridSize="10" guides="1" tooltips="1" connect="1" arrows="1" fold="1" page="1" pageScale="1" pageWidth="827" pageHeight="1169" math="0" shadow="0">
            <root>
                <mxCell id="0"/>
                <mxCell id="1" parent="0"/>
                <mxCell id="2" value="Rechercher un restaurant&amp;nbsp;" style="rounded=0;whiteSpace=wrap;html=1;" parent="1" vertex="1">
                    <mxGeometry x="160" y="60" width="120" height="40" as="geometry"/>
                </mxCell>
                <mxCell id="3" value="Utilisateur" style="shape=umlActor;verticalLabelPosition=bottom;verticalAlign=top;html=1;outlineConnect=0;" parent="1" vertex="1">
                    <mxGeometry x="30" y="230" width="30" height="60" as="geometry"/>
                </mxCell>
                <mxCell id="4" value="" style="endArrow=none;html=1;" parent="1" edge="1">
                    <mxGeometry width="50" height="50" relative="1" as="geometry">
                        <mxPoint x="120" y="600" as="sourcePoint"/>
                        <mxPoint x="120" as="targetPoint"/>
                    </mxGeometry>
                </mxCell>
                <mxCell id="6" value="" style="endArrow=classic;html=1;entryX=0;entryY=0.5;entryDx=0;entryDy=0;" parent="1" target="2" edge="1">
                    <mxGeometry width="50" height="50" relative="1" as="geometry">
                        <mxPoint x="80" y="280" as="sourcePoint"/>
                        <mxPoint x="360" y="190" as="targetPoint"/>
                        <Array as="points"/>
                    </mxGeometry>
                </mxCell>
                <mxCell id="8" value="" style="endArrow=classic;html=1;" parent="1" edge="1">
                    <mxGeometry width="50" height="50" relative="1" as="geometry">
                        <mxPoint x="80" y="280" as="sourcePoint"/>
                        <mxPoint x="160" y="200" as="targetPoint"/>
                    </mxGeometry>
                </mxCell>
                <mxCell id="9" value="" style="endArrow=classic;html=1;entryX=0;entryY=0.5;entryDx=0;entryDy=0;" parent="1" target="10" edge="1">
                    <mxGeometry width="50" height="50" relative="1" as="geometry">
                        <mxPoint x="280" y="80" as="sourcePoint"/>
                        <mxPoint x="320" y="30" as="targetPoint"/>
                    </mxGeometry>
                </mxCell>
                <mxCell id="10" value="Filtrer selon la localisation" style="rounded=0;whiteSpace=wrap;html=1;" parent="1" vertex="1">
                    <mxGeometry x="350" y="30" width="120" height="40" as="geometry"/>
                </mxCell>
                <mxCell id="11" value="" style="endArrow=classic;html=1;entryX=0;entryY=0.5;entryDx=0;entryDy=0;" parent="1" target="12" edge="1">
                    <mxGeometry width="50" height="50" relative="1" as="geometry">
                        <mxPoint x="280" y="80" as="sourcePoint"/>
                        <mxPoint x="320" y="120" as="targetPoint"/>
                    </mxGeometry>
                </mxCell>
                <mxCell id="12" value="Filtrer selon la spécialité" style="rounded=0;whiteSpace=wrap;html=1;" parent="1" vertex="1">
                    <mxGeometry x="350" y="90" width="120" height="40" as="geometry"/>
                </mxCell>
                <mxCell id="13" value="Inclut" style="text;html=1;align=center;verticalAlign=middle;resizable=0;points=[];autosize=1;strokeColor=none;rotation=-25;" parent="1" vertex="1">
                    <mxGeometry x="290" y="40" width="40" height="20" as="geometry"/>
                </mxCell>
                <mxCell id="14" value="Inclut" style="text;html=1;align=center;verticalAlign=middle;resizable=0;points=[];autosize=1;strokeColor=none;rotation=20;" parent="1" vertex="1">
                    <mxGeometry x="290" y="90" width="40" height="20" as="geometry"/>
                </mxCell>
                <mxCell id="15" value="Gestion du panier" style="rounded=0;whiteSpace=wrap;html=1;" parent="1" vertex="1">
                    <mxGeometry x="160" y="170" width="120" height="40" as="geometry"/>
                </mxCell>
                <mxCell id="16" value="" style="endArrow=classic;html=1;entryX=0;entryY=0.5;entryDx=0;entryDy=0;" parent="1" target="28" edge="1">
                    <mxGeometry width="50" height="50" relative="1" as="geometry">
                        <mxPoint x="80" y="280" as="sourcePoint"/>
                        <mxPoint x="160" y="280" as="targetPoint"/>
                    </mxGeometry>
                </mxCell>
                <mxCell id="19" value="" style="endArrow=classic;html=1;entryX=0;entryY=0.5;entryDx=0;entryDy=0;" parent="1" target="20" edge="1">
                    <mxGeometry width="50" height="50" relative="1" as="geometry">
                        <mxPoint x="280" y="190" as="sourcePoint"/>
                        <mxPoint x="350" y="190" as="targetPoint"/>
                    </mxGeometry>
                </mxCell>
                <mxCell id="20" value="Ajouter/Supprimer un menu" style="rounded=0;whiteSpace=wrap;html=1;" parent="1" vertex="1">
                    <mxGeometry x="354" y="170" width="120" height="40" as="geometry"/>
                </mxCell>
                <mxCell id="22" value="" style="endArrow=classic;html=1;" parent="1" edge="1">
                    <mxGeometry width="50" height="50" relative="1" as="geometry">
                        <mxPoint x="280" y="189.5" as="sourcePoint"/>
                        <mxPoint x="354" y="240" as="targetPoint"/>
                    </mxGeometry>
                </mxCell>
                <mxCell id="23" value="Modifier la quantité d'un article" style="rounded=0;whiteSpace=wrap;html=1;" parent="1" vertex="1">
                    <mxGeometry x="354" y="225" width="120" height="40" as="geometry"/>
                </mxCell>
                <mxCell id="25" value="" style="endArrow=classic;html=1;" parent="1" edge="1">
                    <mxGeometry width="50" height="50" relative="1" as="geometry">
                        <mxPoint x="280" y="190" as="sourcePoint"/>
                        <mxPoint x="354" y="240.5" as="targetPoint"/>
                    </mxGeometry>
                </mxCell>
                <mxCell id="26" value="Inclut" style="text;html=1;align=center;verticalAlign=middle;resizable=0;points=[];autosize=1;strokeColor=none;rotation=0;" parent="1" vertex="1">
                    <mxGeometry x="300" y="170" width="40" height="20" as="geometry"/>
                </mxCell>
                <mxCell id="27" value="Inclut" style="text;html=1;align=center;verticalAlign=middle;resizable=0;points=[];autosize=1;strokeColor=none;rotation=35;" parent="1" vertex="1">
                    <mxGeometry x="290" y="220" width="40" height="20" as="geometry"/>
                </mxCell>
                <mxCell id="28" value="Consulter ces commandes" style="rounded=0;whiteSpace=wrap;html=1;" parent="1" vertex="1">
                    <mxGeometry x="160" y="300" width="120" height="60" as="geometry"/>
                </mxCell>
                <mxCell id="29" value="" style="endArrow=classic;html=1;entryX=0;entryY=0.5;entryDx=0;entryDy=0;" parent="1" target="30" edge="1">
                    <mxGeometry width="50" height="50" relative="1" as="geometry">
                        <mxPoint x="80" y="280" as="sourcePoint"/>
                        <mxPoint x="160" y="440" as="targetPoint"/>
                    </mxGeometry>
                </mxCell>
                <mxCell id="30" value="Valider sa commande&amp;nbsp;" style="rounded=0;whiteSpace=wrap;html=1;" parent="1" vertex="1">
                    <mxGeometry x="160" y="410" width="120" height="60" as="geometry"/>
                </mxCell>
                <mxCell id="32" value="" style="endArrow=classic;html=1;entryX=1;entryY=0.5;entryDx=0;entryDy=0;exitX=0;exitY=0.5;exitDx=0;exitDy=0;" edge="1" parent="1" source="33" target="30">
                    <mxGeometry width="50" height="50" relative="1" as="geometry">
                        <mxPoint x="360" y="440" as="sourcePoint"/>
                        <mxPoint x="360" y="400" as="targetPoint"/>
                    </mxGeometry>
                </mxCell>
                <mxCell id="33" value="Laisser un avis" style="rounded=0;whiteSpace=wrap;html=1;" vertex="1" parent="1">
                    <mxGeometry x="360" y="415" width="114" height="50" as="geometry"/>
                </mxCell>
                <mxCell id="34" value="Extend" style="text;html=1;strokeColor=none;fillColor=none;align=center;verticalAlign=middle;whiteSpace=wrap;rounded=0;" vertex="1" parent="1">
                    <mxGeometry x="300" y="420" width="40" height="20" as="geometry"/>
                </mxCell>
                <mxCell id="35" value="" style="endArrow=classic;html=1;entryX=0;entryY=0.5;entryDx=0;entryDy=0;" edge="1" parent="1" target="36">
                    <mxGeometry width="50" height="50" relative="1" as="geometry">
                        <mxPoint x="80" y="280" as="sourcePoint"/>
                        <mxPoint x="160" y="520" as="targetPoint"/>
                    </mxGeometry>
                </mxCell>
                <mxCell id="36" value="Modifier la carte d'un restaurant" style="rounded=0;whiteSpace=wrap;html=1;" vertex="1" parent="1">
                    <mxGeometry x="160" y="500" width="120" height="60" as="geometry"/>
                </mxCell>
            </root>
        </mxGraphModel>
    </diagram>
</mxfile>